Coordinates
version=1
nRows=35
nColumns=18
inDegrees=yes

Units are S.I. units (second, meters, Newtons, ...)
If the header above contains a line with 'inDegrees', this indicates whether rotational values are in degrees (yes) or radians (no).

endheader
time	ground_thorax_rot_x	ground_thorax_rot_y	ground_thorax_rot_z	ground_thorax_tx	ground_thorax_ty	ground_thorax_tz	clav_prot	clav_elev	scapula_abduction	scapula_elevation	scapula_upward_rot	scapula_winging	plane_elv	shoulder_elv	axial_rot	elbow_flexion	pro_sup
      0.00000000	      3.20257430	     -2.15397503	     -8.15949424	     -0.00463136	      0.00474218	      0.00034939	    -29.76206347	     -3.94534704	    -25.46284649	     -3.92243685	     11.82474577	      5.05586885	    -27.21545739	     20.29903590	     26.02570939	      0.00000000	     34.32000000
      0.01000000	      3.20250774	     -2.15434062	     -8.15956718	     -0.00466036	      0.00475063	      0.00031677	    -29.76212569	     -3.94531188	    -25.46297139	     -3.92240873	     11.82472468	      5.05585201	    -27.21546537	     20.29897411	     26.02570447	      0.00000000	     34.32000000
      0.02000000	      3.20243659	     -2.15478720	     -8.15950766	     -0.00467789	      0.00476202	      0.00026704	    -29.76220018	     -3.94532865	    -25.46311597	     -3.92241464	     11.82467878	      5.05585548	    -27.21544950	     20.29877243	     26.02569432	      0.00000000	     34.32000000
      0.03000000	      3.20208605	     -2.15495622	     -8.15938442	     -0.00467482	      0.00478091	      0.00025090	    -29.76223655	     -3.94532278	    -25.46313098	     -3.92243497	     11.82476167	      5.05582602	    -27.21536726	     20.29858270	     26.02568781	      0.00000000	     34.32000000
      0.04000000	      3.20158817	     -2.15494844	     -8.15927488	     -0.00467135	      0.00478990	      0.00026766	    -29.76225585	     -3.94529284	    -25.46306701	     -3.92246285	     11.82494612	      5.05576610	    -27.21526459	     20.29850358	     26.02568749	      0.00000000	     34.32000000
      0.05000000	      3.20134618	     -2.15502673	     -8.15913479	     -0.00467654	      0.00477030	      0.00028493	    -29.76229052	     -3.94533160	    -25.46305487	     -3.92252300	     11.82505039	      5.05574667	    -27.21521794	     20.29845831	     26.02568669	      0.00000000	     34.32000000
      0.06000000	      3.20129861	     -2.15518994	     -8.15903737	     -0.00467952	      0.00475005	      0.00029325	    -29.76232523	     -3.94537806	    -25.46310304	     -3.92255944	     11.82504418	      5.05575754	    -27.21522917	     20.29839468	     26.02568326	      0.00000000	     34.32000000
      0.07000000	      3.20129861	     -2.15518994	     -8.15903737	     -0.00467952	      0.00475005	      0.00029325	    -29.76232523	     -3.94537806	    -25.46310304	     -3.92255944	     11.82504418	      5.05575754	    -27.21522917	     20.29839468	     26.02568326	      0.00000000	     34.32000000
      0.08000000	      3.20109484	     -2.15523512	     -8.15902135	     -0.00465524	      0.00476966	      0.00028778	    -29.76232010	     -3.94531637	    -25.46312480	     -3.92250548	     11.82502064	      5.05574354	    -27.21523246	     20.29822137	     26.02567271	      0.00000000	     34.32000000
      0.09000000	      3.20083027	     -2.15519535	     -8.15894862	     -0.00465138	      0.00477512	      0.00030123	    -29.76230663	     -3.94530031	    -25.46307312	     -3.92250825	     11.82508051	      5.05572558	    -27.21520821	     20.29807389	     26.02566165	      0.00000000	     34.32000000
      0.10000000	      3.20039326	     -2.15500753	     -8.15888407	     -0.00465871	      0.00478597	      0.00033377	    -29.76226034	     -3.94526342	    -25.46290787	     -3.92252354	     11.82525547	      5.05567777	    -27.21513958	     20.29797287	     26.02565269	      0.00000000	     34.32000000
      0.11000000	      3.19997292	     -2.15466032	     -8.15867787	     -0.00464095	      0.00480095	      0.00034709	    -29.76217100	     -3.94526741	    -25.46266101	     -3.92256664	     11.82542892	      5.05565207	    -27.21502950	     20.29772810	     26.02563657	      0.00000000	     34.32000000
      0.12000000	      3.19975165	     -2.15390370	     -8.15805026	     -0.00456788	      0.00480490	      0.00033465	    -29.76199379	     -3.94547774	    -25.46224696	     -3.92274496	     11.82554049	      5.05572775	    -27.21483736	     20.29712771	     26.02560412	      0.00000000	     34.32000000
      0.13000000	      3.18981921	     -2.12063651	     -8.14423902	     -0.00457363	      0.00483874	      0.00027232	    -29.75324831	     -3.95194307	    -25.44498969	     -3.92754732	     11.82732452	      5.05907401	    -27.20837113	     20.27027541	     26.02422582	      0.00000000	     34.32000000
      0.14000000	      3.18977387	     -2.11984317	     -8.14403991	     -0.00448187	      0.00484807	      0.00026531	    -29.75302328	     -3.95195458	    -25.44472512	     -3.92748811	     11.82712908	      5.05916722	    -27.20830410	     20.26967528	     26.02420411	      0.00000000	     34.32000000
      0.15000000	      3.19007011	     -2.11969705	     -8.14427098	     -0.00444928	      0.00487022	      0.00021005	    -29.75286481	     -3.95181701	    -25.44482872	     -3.92721557	     11.82654799	      5.05929551	    -27.20841400	     20.26896200	     26.02416741	      0.00000000	     34.32000000
      0.16000000	      3.19017858	     -2.12040462	     -8.14523187	     -0.00451248	      0.00489793	      0.00016832	    -29.75288705	     -3.95132961	    -25.44536107	     -3.92667201	     11.82590742	      5.05928729	    -27.20872524	     20.26868036	     26.02414768	      0.00000000	     34.32000000
      0.17000000	      3.17636785	     -2.13864021	     -8.17257660	     -0.00453060	      0.00482645	      0.00023704	    -29.75449699	     -3.93052320	    -25.46122852	     -3.90727546	     11.81257387	      5.05520088	    -27.21824361	     20.26374468	     26.02379961	      0.00000000	     34.32000000
      0.18000000	      3.17580921	     -2.13875560	     -8.17288054	     -0.00461288	      0.00482522	      0.00029260	    -29.75452579	     -3.93028516	    -25.46124857	     -3.90715464	     11.81281575	      5.05516533	    -27.21826579	     20.26389115	     26.02380315	      0.00000000	     34.32000000
      0.19000000	      3.17595305	     -2.13855702	     -8.17246016	     -0.00461409	      0.00479282	      0.00029386	    -29.75442828	     -3.93048199	    -25.46107035	     -3.90728074	     11.81274966	      5.05526621	    -27.21822443	     20.26346330	     26.02377980	      0.00000000	     34.32000000
      0.20000000	      3.17661133	     -2.13843135	     -8.17174422	     -0.00459947	      0.00479736	      0.00023490	    -29.75415016	     -3.93083094	    -25.46089187	     -3.90734869	     11.81208038	      5.05560291	    -27.21823899	     20.26198593	     26.02369576	      0.00000000	     34.32000000
      0.21000000	      3.17660247	     -2.13910467	     -8.17215518	     -0.00463078	      0.00485147	      0.00018259	    -29.75416621	     -3.93053017	    -25.46123943	     -3.90700621	     11.81165826	      5.05560443	    -27.21842168	     20.26153911	     26.02366127	      0.00000000	     34.32000000
      0.22000000	      3.14832949	     -2.17451041	     -8.18289762	     -0.00458510	      0.00481423	      0.00024468	    -29.76073106	     -3.90646339	    -25.48364110	     -3.88670365	     11.80295593	      5.04847474	    -27.22915518	     20.24137723	     26.02077422	      0.00000000	     34.32000000
      0.23000000	      3.14730939	     -2.17438941	     -8.18321953	     -0.00461415	      0.00483394	      0.00032434	    -29.76082040	     -3.90607139	    -25.48359557	     -3.88655291	     11.80348995	      5.04819235	    -27.22912893	     20.24180690	     26.02078595	      0.00000000	     34.32000000
      0.24000000	      3.14686785	     -2.17419998	     -8.18309823	     -0.00461369	      0.00478889	      0.00037054	    -29.76090346	     -3.90598759	    -25.48350663	     -3.88661323	     11.80393201	      5.04803789	    -27.22911981	     20.24211876	     26.02079430	      0.00000000	     34.32000000
      0.25000000	      3.14753378	     -2.17439225	     -8.18266461	     -0.00462781	      0.00469715	      0.00035547	    -29.76097509	     -3.90628468	    -25.48357421	     -3.88683135	     11.80387726	      5.04813837	    -27.22925971	     20.24204552	     26.02078087	      0.00000000	     34.32000000
      0.26000000	      3.17215531	     -2.18557762	     -8.17494439	     -0.00470137	      0.00467666	      0.00040183	    -29.76170360	     -3.91379515	    -25.48582040	     -3.89116100	     11.79836630	      5.05190942	    -27.23810610	     20.23831875	     26.02043606	      0.00000000	     34.32000000
      0.27000000	      3.17259351	     -2.18665638	     -8.17535386	     -0.00482262	      0.00464685	      0.00039656	    -29.76187083	     -3.91375356	    -25.48616593	     -3.89111433	     11.79826583	      5.05189510	    -27.23844399	     20.23870235	     26.02045821	      0.00000000	     34.32000000
      0.28000000	      3.17266854	     -2.18759491	     -8.17583249	     -0.00489584	      0.00466332	      0.00040627	    -29.76199517	     -3.91355399	    -25.48642466	     -3.89097130	     11.79826935	      5.05180413	    -27.23873564	     20.23914479	     26.02048718	      0.00000000	     34.32000000
      0.29000000	      3.17258891	     -2.18794437	     -8.17596073	     -0.00487185	      0.00469192	      0.00041035	    -29.76200070	     -3.91341456	    -25.48642794	     -3.89088589	     11.79834780	      5.05173649	    -27.23888488	     20.23938072	     26.02051518	      0.00000000	     34.32000000
      0.30000000	      3.17230826	     -2.18790299	     -8.17608773	     -0.00481869	      0.00472613	      0.00042744	    -29.76192844	     -3.91321948	    -25.48627653	     -3.89077186	     11.79849942	      5.05164609	    -27.23895770	     20.23961851	     26.02055129	      0.00000000	     34.32000000
      0.31000000	      3.17190088	     -2.18814766	     -8.17674171	     -0.00481817	      0.00475816	      0.00045995	    -29.76190798	     -3.91275921	    -25.48629563	     -3.89045275	     11.79863019	      5.05146212	    -27.23913227	     20.24019652	     26.02060467	      0.00000000	     34.32000000
      0.32000000	      3.17193077	     -2.20903046	     -8.20145217	     -0.00474080	      0.00469957	      0.00050731	    -29.76281794	     -3.89558743	    -25.49356327	     -3.87685981	     11.79677005	      5.04595063	    -27.25058230	     20.26289100	     26.02230909	      0.00000000	     34.32000000
      0.33000000	      3.17187343	     -2.20916595	     -8.20158653	     -0.00473159	      0.00471221	      0.00050553	    -29.76281093	     -3.89538414	    -25.49355789	     -3.87673803	     11.79689388	      5.04588878	    -27.25073730	     20.26314269	     26.02231700	      0.00000000	     34.32000000
      0.34000000	      3.17122711	     -2.20912908	     -8.20175558	     -0.00470095	      0.00475628	      0.00050014	    -29.76284723	     -3.89504003	    -25.49347758	     -3.87658878	     11.79731076	      5.04566178	    -27.25082440	     20.26346744	     26.02232844	      0.00000000	     34.32000000
